<mxfile host="Electron" modified="2023-12-16T11:21:16.686Z" agent="Mozilla/5.0 (Windows NT 10.0; Win64; x64) AppleWebKit/537.36 (KHTML, like Gecko) draw.io/22.1.2 Chrome/114.0.5735.289 Electron/25.9.4 Safari/537.36" etag="JnMzrIIh_HIGus8YV-H6" version="22.1.2" type="device" pages="2">
  <diagram name="Диаграмма последовательности" id="3236EgtnvFtTP5rybuEO">
    <mxGraphModel dx="1891" dy="1856" grid="0" gridSize="10" guides="1" tooltips="1" connect="1" arrows="1" fold="1" page="0" pageScale="1" pageWidth="1200" pageHeight="1920" math="0" shadow="0">
      <root>
        <mxCell id="0" />
        <mxCell id="1" parent="0" />
        <mxCell id="boD6oBE_yqhL2sk24YFL-18" style="edgeStyle=orthogonalEdgeStyle;rounded=0;orthogonalLoop=1;jettySize=auto;html=1;dashed=1;endArrow=none;endFill=0;" parent="1" source="boD6oBE_yqhL2sk24YFL-2" edge="1">
          <mxGeometry relative="1" as="geometry">
            <mxPoint x="-96" y="-281.5172077047413" as="targetPoint" />
          </mxGeometry>
        </mxCell>
        <mxCell id="boD6oBE_yqhL2sk24YFL-2" value="&lt;font style=&quot;font-size: 16px;&quot;&gt;aClient&lt;/font&gt;" style="rounded=0;whiteSpace=wrap;html=1;" parent="1" vertex="1">
          <mxGeometry x="-156" y="-929.25" width="120" height="60" as="geometry" />
        </mxCell>
        <mxCell id="boD6oBE_yqhL2sk24YFL-8" style="edgeStyle=orthogonalEdgeStyle;rounded=0;orthogonalLoop=1;jettySize=auto;html=1;dashed=1;endArrow=none;endFill=0;" parent="1" source="boD6oBE_yqhL2sk24YFL-3" edge="1">
          <mxGeometry relative="1" as="geometry">
            <mxPoint x="-432" y="-279" as="targetPoint" />
            <Array as="points">
              <mxPoint x="-432" y="-282" />
            </Array>
          </mxGeometry>
        </mxCell>
        <mxCell id="boD6oBE_yqhL2sk24YFL-3" value="&lt;font style=&quot;font-size: 16px;&quot;&gt;aCenter&lt;/font&gt;" style="rounded=0;whiteSpace=wrap;html=1;" parent="1" vertex="1">
          <mxGeometry x="-492" y="-929.25" width="120" height="60" as="geometry" />
        </mxCell>
        <mxCell id="boD6oBE_yqhL2sk24YFL-6" style="edgeStyle=orthogonalEdgeStyle;rounded=0;orthogonalLoop=1;jettySize=auto;html=1;dashed=1;endArrow=none;endFill=0;" parent="1" source="boD6oBE_yqhL2sk24YFL-4" edge="1">
          <mxGeometry relative="1" as="geometry">
            <mxPoint x="-264" y="-281.75" as="targetPoint" />
          </mxGeometry>
        </mxCell>
        <mxCell id="boD6oBE_yqhL2sk24YFL-4" value="&lt;font style=&quot;font-size: 16px;&quot;&gt;aAbonement&lt;/font&gt;" style="rounded=0;whiteSpace=wrap;html=1;" parent="1" vertex="1">
          <mxGeometry x="-324" y="-931" width="120" height="60" as="geometry" />
        </mxCell>
        <mxCell id="boD6oBE_yqhL2sk24YFL-7" value="" style="rounded=0;whiteSpace=wrap;html=1;rotation=-90;" parent="1" vertex="1">
          <mxGeometry x="-324" y="-788" width="120" height="60" as="geometry" />
        </mxCell>
        <mxCell id="boD6oBE_yqhL2sk24YFL-9" value="" style="rounded=0;whiteSpace=wrap;html=1;rotation=90;" parent="1" vertex="1">
          <mxGeometry x="-679" y="-637" width="488" height="60" as="geometry" />
        </mxCell>
        <mxCell id="boD6oBE_yqhL2sk24YFL-12" value="" style="html=1;verticalAlign=bottom;startArrow=oval;startFill=1;endArrow=block;startSize=8;curved=0;rounded=0;" parent="1" edge="1">
          <mxGeometry width="60" relative="1" as="geometry">
            <mxPoint x="-607" y="-814" as="sourcePoint" />
            <mxPoint x="-463" y="-814" as="targetPoint" />
          </mxGeometry>
        </mxCell>
        <mxCell id="boD6oBE_yqhL2sk24YFL-20" value="" style="rounded=0;whiteSpace=wrap;html=1;rotation=90;" parent="1" vertex="1">
          <mxGeometry x="-334.64" y="-586.34" width="485.3" height="60" as="geometry" />
        </mxCell>
        <mxCell id="boD6oBE_yqhL2sk24YFL-23" value="&lt;font style=&quot;font-size: 8px;&quot;&gt;Выдача абонемента&lt;/font&gt;" style="text;html=1;align=center;verticalAlign=middle;resizable=0;points=[];autosize=1;strokeColor=none;fillColor=none;" parent="1" vertex="1">
          <mxGeometry x="-226" y="-778" width="94" height="26" as="geometry" />
        </mxCell>
        <mxCell id="boD6oBE_yqhL2sk24YFL-25" style="edgeStyle=orthogonalEdgeStyle;rounded=0;orthogonalLoop=1;jettySize=auto;html=1;entryX=0.947;entryY=0.992;entryDx=0;entryDy=0;entryPerimeter=0;" parent="1" edge="1">
          <mxGeometry relative="1" as="geometry">
            <mxPoint x="-404" y="-788.7700000000001" as="sourcePoint" />
            <mxPoint x="-292.52" y="-788.13" as="targetPoint" />
          </mxGeometry>
        </mxCell>
        <mxCell id="boD6oBE_yqhL2sk24YFL-27" value="&lt;font style=&quot;font-size: 8px;&quot;&gt;Создание абонемента&lt;/font&gt;" style="text;html=1;align=center;verticalAlign=middle;resizable=0;points=[];autosize=1;strokeColor=none;fillColor=none;" parent="1" vertex="1">
          <mxGeometry x="-400" y="-811" width="101" height="26" as="geometry" />
        </mxCell>
        <mxCell id="boD6oBE_yqhL2sk24YFL-28" style="edgeStyle=orthogonalEdgeStyle;rounded=0;orthogonalLoop=1;jettySize=auto;html=1;entryX=0.947;entryY=0.992;entryDx=0;entryDy=0;entryPerimeter=0;" parent="1" edge="1">
          <mxGeometry relative="1" as="geometry">
            <mxPoint x="-234" y="-754.0000000000001" as="sourcePoint" />
            <mxPoint x="-122.51999999999998" y="-753.36" as="targetPoint" />
          </mxGeometry>
        </mxCell>
        <mxCell id="boD6oBE_yqhL2sk24YFL-29" style="edgeStyle=orthogonalEdgeStyle;rounded=0;orthogonalLoop=1;jettySize=auto;html=1;entryX=0.38;entryY=0.004;entryDx=0;entryDy=0;entryPerimeter=0;" parent="1" edge="1">
          <mxGeometry relative="1" as="geometry">
            <mxPoint x="-122.38" y="-659.96" as="sourcePoint" />
            <mxPoint x="-405.62" y="-661" as="targetPoint" />
          </mxGeometry>
        </mxCell>
        <mxCell id="boD6oBE_yqhL2sk24YFL-30" value="&lt;font style=&quot;font-size: 8px;&quot;&gt;Оплата абонемента&lt;/font&gt;" style="text;html=1;align=center;verticalAlign=middle;resizable=0;points=[];autosize=1;strokeColor=none;fillColor=none;" parent="1" vertex="1">
          <mxGeometry x="-250" y="-688" width="92" height="26" as="geometry" />
        </mxCell>
        <mxCell id="boD6oBE_yqhL2sk24YFL-31" style="edgeStyle=orthogonalEdgeStyle;rounded=0;orthogonalLoop=1;jettySize=auto;html=1;entryX=0.413;entryY=1.01;entryDx=0;entryDy=0;entryPerimeter=0;dashed=1;" parent="1" edge="1">
          <mxGeometry relative="1" as="geometry">
            <mxPoint x="-405.2" y="-606.7499999999999" as="sourcePoint" />
            <mxPoint x="-122.79999999999968" y="-606.9990000000001" as="targetPoint" />
          </mxGeometry>
        </mxCell>
        <mxCell id="boD6oBE_yqhL2sk24YFL-32" value="&lt;font style=&quot;font-size: 8px;&quot;&gt;Подтверждение оплаты&lt;/font&gt;" style="text;html=1;align=center;verticalAlign=middle;resizable=0;points=[];autosize=1;strokeColor=none;fillColor=none;" parent="1" vertex="1">
          <mxGeometry x="-250" y="-635.5" width="107" height="26" as="geometry" />
        </mxCell>
        <mxCell id="boD6oBE_yqhL2sk24YFL-35" style="edgeStyle=orthogonalEdgeStyle;rounded=0;orthogonalLoop=1;jettySize=auto;html=1;entryX=0.682;entryY=-0.006;entryDx=0;entryDy=0;entryPerimeter=0;" parent="1" edge="1">
          <mxGeometry relative="1" as="geometry">
            <mxPoint x="-122.67999999999978" y="-567.8713390928726" as="sourcePoint" />
            <mxPoint x="-405.3199999999999" y="-567.9659999999999" as="targetPoint" />
          </mxGeometry>
        </mxCell>
        <mxCell id="boD6oBE_yqhL2sk24YFL-36" value="&lt;span style=&quot;font-size: 8px;&quot;&gt;Посещение по абонементу&lt;/span&gt;" style="text;html=1;align=center;verticalAlign=middle;resizable=0;points=[];autosize=1;strokeColor=none;fillColor=none;" parent="1" vertex="1">
          <mxGeometry x="-248.5" y="-595" width="119" height="26" as="geometry" />
        </mxCell>
        <mxCell id="boD6oBE_yqhL2sk24YFL-37" style="edgeStyle=orthogonalEdgeStyle;rounded=0;orthogonalLoop=1;jettySize=auto;html=1;entryX=0.437;entryY=0.99;entryDx=0;entryDy=0;entryPerimeter=0;dashed=1;" parent="1" edge="1">
          <mxGeometry relative="1" as="geometry">
            <mxPoint x="-405.8" y="-527.48" as="sourcePoint" />
            <mxPoint x="-122.19499999999975" y="-527.96275" as="targetPoint" />
          </mxGeometry>
        </mxCell>
        <mxCell id="boD6oBE_yqhL2sk24YFL-38" value="&lt;span style=&quot;font-size: 8px;&quot;&gt;Регистрация посещения&lt;/span&gt;" style="text;html=1;align=center;verticalAlign=middle;resizable=0;points=[];autosize=1;strokeColor=none;fillColor=none;" parent="1" vertex="1">
          <mxGeometry x="-244" y="-555" width="108" height="26" as="geometry" />
        </mxCell>
        <mxCell id="boD6oBE_yqhL2sk24YFL-39" style="edgeStyle=orthogonalEdgeStyle;rounded=0;orthogonalLoop=1;jettySize=auto;html=1;entryX=0.67;entryY=0.004;entryDx=0;entryDy=0;entryPerimeter=0;dashed=1;" parent="1" edge="1">
          <mxGeometry relative="1" as="geometry">
            <mxPoint x="-122.36999999999978" y="-482.9641466264386" as="sourcePoint" />
            <mxPoint x="-405.62" y="-483.9999999999998" as="targetPoint" />
          </mxGeometry>
        </mxCell>
        <mxCell id="boD6oBE_yqhL2sk24YFL-40" value="&lt;span style=&quot;font-size: 8px;&quot;&gt;Отзыв о посещении&lt;/span&gt;" style="text;html=1;align=center;verticalAlign=middle;resizable=0;points=[];autosize=1;strokeColor=none;fillColor=none;" parent="1" vertex="1">
          <mxGeometry x="-235" y="-509" width="92" height="26" as="geometry" />
        </mxCell>
        <mxCell id="boD6oBE_yqhL2sk24YFL-45" value="" style="rounded=1;whiteSpace=wrap;html=1;" parent="1" vertex="1">
          <mxGeometry x="-408.53" y="-466" width="10" height="52" as="geometry" />
        </mxCell>
        <mxCell id="boD6oBE_yqhL2sk24YFL-46" style="edgeStyle=orthogonalEdgeStyle;rounded=0;orthogonalLoop=1;jettySize=auto;html=1;entryX=1;entryY=0.75;entryDx=0;entryDy=0;" parent="1" source="boD6oBE_yqhL2sk24YFL-45" target="boD6oBE_yqhL2sk24YFL-45" edge="1">
          <mxGeometry relative="1" as="geometry">
            <Array as="points">
              <mxPoint x="-290.53" y="-459" />
              <mxPoint x="-290.53" y="-427" />
            </Array>
          </mxGeometry>
        </mxCell>
        <mxCell id="boD6oBE_yqhL2sk24YFL-47" value="&lt;font style=&quot;font-size: 8px;&quot;&gt;Анализ отзыва&lt;/font&gt;" style="text;html=1;align=center;verticalAlign=middle;resizable=0;points=[];autosize=1;strokeColor=none;fillColor=none;" parent="1" vertex="1">
          <mxGeometry x="-378.53" y="-448" width="73" height="26" as="geometry" />
        </mxCell>
        <mxCell id="boD6oBE_yqhL2sk24YFL-48" style="edgeStyle=orthogonalEdgeStyle;rounded=0;orthogonalLoop=1;jettySize=auto;html=1;entryX=0.397;entryY=0.976;entryDx=0;entryDy=0;entryPerimeter=0;" parent="1" edge="1">
          <mxGeometry relative="1" as="geometry">
            <mxPoint x="-406.23" y="-386.00079189686903" as="sourcePoint" />
            <mxPoint x="-121.77999999999996" y="-385.33590000000027" as="targetPoint" />
          </mxGeometry>
        </mxCell>
        <mxCell id="boD6oBE_yqhL2sk24YFL-49" value="&lt;span style=&quot;font-size: 8px;&quot;&gt;Благодарность&amp;nbsp; за отзыв&lt;/span&gt;" style="text;html=1;align=center;verticalAlign=middle;resizable=0;points=[];autosize=1;strokeColor=none;fillColor=none;" parent="1" vertex="1">
          <mxGeometry x="-244" y="-414" width="110" height="26" as="geometry" />
        </mxCell>
        <mxCell id="boD6oBE_yqhL2sk24YFL-50" value="&lt;font style=&quot;font-size: 8px;&quot;&gt;Найденные результаты&lt;/font&gt;" style="text;html=1;align=center;verticalAlign=middle;resizable=0;points=[];autosize=1;strokeColor=none;fillColor=none;" parent="1" vertex="1">
          <mxGeometry x="-592" y="-840" width="105" height="26" as="geometry" />
        </mxCell>
      </root>
    </mxGraphModel>
  </diagram>
  <diagram id="2U0Ee7ympcupzXTklFOi" name="Диаграмма деятельности">
    <mxGraphModel dx="1436" dy="1823" grid="0" gridSize="10" guides="1" tooltips="1" connect="1" arrows="1" fold="1" page="0" pageScale="1" pageWidth="1200" pageHeight="1920" math="0" shadow="0">
      <root>
        <mxCell id="0" />
        <mxCell id="1" parent="0" />
        <mxCell id="S4FTbXt1knZrRc-NNq1e-32" style="edgeStyle=orthogonalEdgeStyle;rounded=0;orthogonalLoop=1;jettySize=auto;html=1;entryX=0.5;entryY=0;entryDx=0;entryDy=0;endArrow=open;endFill=0;" parent="1" target="CkpQaoX0eohZpUSXOfQe-16" edge="1">
          <mxGeometry relative="1" as="geometry">
            <mxPoint x="31" y="-527" as="sourcePoint" />
          </mxGeometry>
        </mxCell>
        <mxCell id="CkpQaoX0eohZpUSXOfQe-16" value="Проверить&lt;br&gt;&amp;nbsp;наличие абонемента" style="rounded=0;whiteSpace=wrap;html=1;" parent="1" vertex="1">
          <mxGeometry x="-29" y="-497" width="120" height="60" as="geometry" />
        </mxCell>
        <mxCell id="PtxfR4LuHGesaByQ00t9-2" value="&lt;div style=&quot;&quot;&gt;&lt;span style=&quot;background-color: initial;&quot;&gt;&lt;font style=&quot;font-size: 12px;&quot;&gt;Выбрать&lt;br&gt;&amp;nbsp;абонемент&amp;nbsp;&lt;/font&gt;&lt;/span&gt;&lt;/div&gt;" style="rounded=0;whiteSpace=wrap;html=1;align=center;" parent="1" vertex="1">
          <mxGeometry x="-28" y="-767" width="120" height="60" as="geometry" />
        </mxCell>
        <mxCell id="S4FTbXt1knZrRc-NNq1e-1" value="Оформить абонемент" style="rounded=0;whiteSpace=wrap;html=1;" parent="1" vertex="1">
          <mxGeometry x="-28" y="-585" width="120" height="60" as="geometry" />
        </mxCell>
        <mxCell id="S4FTbXt1knZrRc-NNq1e-43" style="edgeStyle=orthogonalEdgeStyle;rounded=0;orthogonalLoop=1;jettySize=auto;html=1;endArrow=open;endFill=0;" parent="1" source="S4FTbXt1knZrRc-NNq1e-15" edge="1">
          <mxGeometry relative="1" as="geometry">
            <mxPoint x="-115" y="-248.33336046006957" as="targetPoint" />
          </mxGeometry>
        </mxCell>
        <mxCell id="S4FTbXt1knZrRc-NNq1e-15" value="Отклонить абонемент" style="rounded=0;whiteSpace=wrap;html=1;" parent="1" vertex="1">
          <mxGeometry x="-175" y="-353" width="120" height="60" as="geometry" />
        </mxCell>
        <mxCell id="S4FTbXt1knZrRc-NNq1e-23" value="" style="html=1;verticalAlign=bottom;startArrow=circle;startFill=1;endArrow=open;startSize=6;endSize=8;curved=0;rounded=0;" parent="1" edge="1">
          <mxGeometry width="80" relative="1" as="geometry">
            <mxPoint x="31.5" y="-823" as="sourcePoint" />
            <mxPoint x="31.5" y="-767" as="targetPoint" />
          </mxGeometry>
        </mxCell>
        <mxCell id="S4FTbXt1knZrRc-NNq1e-27" style="edgeStyle=orthogonalEdgeStyle;rounded=0;orthogonalLoop=1;jettySize=auto;html=1;entryX=0.5;entryY=0;entryDx=0;entryDy=0;endArrow=open;endFill=0;" parent="1" source="S4FTbXt1knZrRc-NNq1e-25" target="S4FTbXt1knZrRc-NNq1e-1" edge="1">
          <mxGeometry relative="1" as="geometry">
            <mxPoint x="32" y="-589.5999755859375" as="targetPoint" />
          </mxGeometry>
        </mxCell>
        <mxCell id="S4FTbXt1knZrRc-NNq1e-42" value="&lt;font style=&quot;font-size: 12px;&quot;&gt;[Абонемент выбран]&lt;/font&gt;" style="edgeLabel;html=1;align=center;verticalAlign=middle;resizable=0;points=[];" parent="S4FTbXt1knZrRc-NNq1e-27" vertex="1" connectable="0">
          <mxGeometry x="-0.3953" y="-1" relative="1" as="geometry">
            <mxPoint x="5" y="3" as="offset" />
          </mxGeometry>
        </mxCell>
        <mxCell id="S4FTbXt1knZrRc-NNq1e-30" style="edgeStyle=orthogonalEdgeStyle;rounded=0;orthogonalLoop=1;jettySize=auto;html=1;endArrow=open;endFill=0;" parent="1" source="S4FTbXt1knZrRc-NNq1e-25" edge="1">
          <mxGeometry relative="1" as="geometry">
            <mxPoint x="66" y="-769" as="targetPoint" />
            <Array as="points">
              <mxPoint x="184" y="-650" />
              <mxPoint x="184" y="-828" />
              <mxPoint x="66" y="-828" />
            </Array>
          </mxGeometry>
        </mxCell>
        <mxCell id="S4FTbXt1knZrRc-NNq1e-41" value="&lt;font style=&quot;font-size: 12px;&quot;&gt;[Абонемент не выбран]&lt;/font&gt;" style="edgeLabel;html=1;align=center;verticalAlign=middle;resizable=0;points=[];" parent="S4FTbXt1knZrRc-NNq1e-30" vertex="1" connectable="0">
          <mxGeometry x="-0.4775" y="-3" relative="1" as="geometry">
            <mxPoint x="6" y="-93" as="offset" />
          </mxGeometry>
        </mxCell>
        <mxCell id="S4FTbXt1knZrRc-NNq1e-25" value="" style="strokeWidth=2;html=1;shape=mxgraph.flowchart.decision;whiteSpace=wrap;" parent="1" vertex="1">
          <mxGeometry x="10.25" y="-671.5" width="43.5" height="43.5" as="geometry" />
        </mxCell>
        <mxCell id="S4FTbXt1knZrRc-NNq1e-26" style="edgeStyle=orthogonalEdgeStyle;rounded=0;orthogonalLoop=1;jettySize=auto;html=1;entryX=0.5;entryY=0;entryDx=0;entryDy=0;entryPerimeter=0;endArrow=open;endFill=0;" parent="1" source="PtxfR4LuHGesaByQ00t9-2" target="S4FTbXt1knZrRc-NNq1e-25" edge="1">
          <mxGeometry relative="1" as="geometry" />
        </mxCell>
        <mxCell id="S4FTbXt1knZrRc-NNq1e-35" style="edgeStyle=orthogonalEdgeStyle;rounded=0;orthogonalLoop=1;jettySize=auto;html=1;endArrow=open;endFill=0;" parent="1" source="S4FTbXt1knZrRc-NNq1e-33" target="S4FTbXt1knZrRc-NNq1e-15" edge="1">
          <mxGeometry relative="1" as="geometry">
            <mxPoint x="-129.60001627604174" y="-387.25" as="targetPoint" />
          </mxGeometry>
        </mxCell>
        <mxCell id="S4FTbXt1knZrRc-NNq1e-40" value="&lt;font style=&quot;font-size: 12px;&quot;&gt;[абонемент&lt;br&gt;отсутствует]&lt;/font&gt;" style="edgeLabel;html=1;align=center;verticalAlign=middle;resizable=0;points=[];" parent="S4FTbXt1knZrRc-NNq1e-35" vertex="1" connectable="0">
          <mxGeometry x="-0.2624" y="1" relative="1" as="geometry">
            <mxPoint as="offset" />
          </mxGeometry>
        </mxCell>
        <mxCell id="S4FTbXt1knZrRc-NNq1e-37" style="edgeStyle=orthogonalEdgeStyle;rounded=0;orthogonalLoop=1;jettySize=auto;html=1;endArrow=open;endFill=0;" parent="1" source="S4FTbXt1knZrRc-NNq1e-33" edge="1">
          <mxGeometry relative="1" as="geometry">
            <mxPoint x="150" y="-358" as="targetPoint" />
          </mxGeometry>
        </mxCell>
        <mxCell id="S4FTbXt1knZrRc-NNq1e-38" value="&lt;font style=&quot;font-size: 12px;&quot;&gt;[абонемент&lt;br&gt;в&amp;nbsp;наличии]&lt;/font&gt;" style="edgeLabel;html=1;align=center;verticalAlign=middle;resizable=0;points=[];" parent="S4FTbXt1knZrRc-NNq1e-37" vertex="1" connectable="0">
          <mxGeometry x="-0.2677" y="4" relative="1" as="geometry">
            <mxPoint as="offset" />
          </mxGeometry>
        </mxCell>
        <mxCell id="S4FTbXt1knZrRc-NNq1e-33" value="" style="strokeWidth=2;html=1;shape=mxgraph.flowchart.decision;whiteSpace=wrap;" parent="1" vertex="1">
          <mxGeometry x="9.25" y="-409" width="43.5" height="43.5" as="geometry" />
        </mxCell>
        <mxCell id="S4FTbXt1knZrRc-NNq1e-34" style="edgeStyle=orthogonalEdgeStyle;rounded=0;orthogonalLoop=1;jettySize=auto;html=1;entryX=0.5;entryY=0;entryDx=0;entryDy=0;entryPerimeter=0;endArrow=open;endFill=0;" parent="1" source="CkpQaoX0eohZpUSXOfQe-16" target="S4FTbXt1knZrRc-NNq1e-33" edge="1">
          <mxGeometry relative="1" as="geometry" />
        </mxCell>
        <mxCell id="S4FTbXt1knZrRc-NNq1e-36" value="" style="line;strokeWidth=3;fillColor=none;align=left;verticalAlign=middle;spacingTop=-1;spacingLeft=3;spacingRight=3;rotatable=0;labelPosition=right;points=[];portConstraint=eastwest;strokeColor=inherit;" parent="1" vertex="1">
          <mxGeometry x="114" y="-361" width="70" height="8" as="geometry" />
        </mxCell>
        <mxCell id="S4FTbXt1knZrRc-NNq1e-44" value="Организовать&lt;br&gt;доставку&lt;br&gt;абонемента&lt;br&gt;" style="rounded=0;whiteSpace=wrap;html=1;" parent="1" vertex="1">
          <mxGeometry x="186.74" y="-314.77" width="120" height="60" as="geometry" />
        </mxCell>
        <mxCell id="S4FTbXt1knZrRc-NNq1e-49" style="edgeStyle=orthogonalEdgeStyle;rounded=0;orthogonalLoop=1;jettySize=auto;html=1;endArrow=open;endFill=0;" parent="1" source="S4FTbXt1knZrRc-NNq1e-45" edge="1">
          <mxGeometry relative="1" as="geometry">
            <mxPoint x="88" y="-219" as="targetPoint" />
          </mxGeometry>
        </mxCell>
        <mxCell id="S4FTbXt1knZrRc-NNq1e-45" value="Оформить&lt;br&gt;счёт" style="rounded=0;whiteSpace=wrap;html=1;" parent="1" vertex="1">
          <mxGeometry x="28" y="-314.77" width="120" height="60" as="geometry" />
        </mxCell>
        <mxCell id="S4FTbXt1knZrRc-NNq1e-46" style="edgeStyle=orthogonalEdgeStyle;rounded=0;orthogonalLoop=1;jettySize=auto;html=1;exitX=0.4;exitY=0.971;exitDx=0;exitDy=0;exitPerimeter=0;endArrow=open;endFill=0;" parent="1" target="S4FTbXt1knZrRc-NNq1e-45" edge="1">
          <mxGeometry relative="1" as="geometry">
            <mxPoint x="142" y="-356.0020000000002" as="sourcePoint" />
          </mxGeometry>
        </mxCell>
        <mxCell id="S4FTbXt1knZrRc-NNq1e-47" style="edgeStyle=orthogonalEdgeStyle;rounded=0;orthogonalLoop=1;jettySize=auto;html=1;exitX=0.718;exitY=0.929;exitDx=0;exitDy=0;exitPerimeter=0;endArrow=open;endFill=0;" parent="1" target="S4FTbXt1knZrRc-NNq1e-44" edge="1">
          <mxGeometry relative="1" as="geometry">
            <mxPoint x="157" y="-356.3380000000002" as="sourcePoint" />
            <Array as="points">
              <mxPoint x="157" y="-336" />
              <mxPoint x="247" y="-336" />
            </Array>
          </mxGeometry>
        </mxCell>
        <mxCell id="S4FTbXt1knZrRc-NNq1e-55" style="edgeStyle=orthogonalEdgeStyle;rounded=0;orthogonalLoop=1;jettySize=auto;html=1;endArrow=open;endFill=0;" parent="1" source="S4FTbXt1knZrRc-NNq1e-51" edge="1">
          <mxGeometry relative="1" as="geometry">
            <mxPoint x="88" y="-128.51521809895826" as="targetPoint" />
          </mxGeometry>
        </mxCell>
        <mxCell id="S4FTbXt1knZrRc-NNq1e-51" value="Оплатить&lt;br&gt;&amp;nbsp;счёт" style="rounded=0;whiteSpace=wrap;html=1;" parent="1" vertex="1">
          <mxGeometry x="28" y="-216.99999999999997" width="120" height="60" as="geometry" />
        </mxCell>
        <mxCell id="S4FTbXt1knZrRc-NNq1e-54" value="" style="line;strokeWidth=3;fillColor=none;align=left;verticalAlign=middle;spacingTop=-1;spacingLeft=3;spacingRight=3;rotatable=0;labelPosition=right;points=[];portConstraint=eastwest;strokeColor=inherit;" parent="1" vertex="1">
          <mxGeometry x="55.5" y="-127" width="65" height="1.89" as="geometry" />
        </mxCell>
        <mxCell id="S4FTbXt1knZrRc-NNq1e-56" style="edgeStyle=orthogonalEdgeStyle;rounded=0;orthogonalLoop=1;jettySize=auto;html=1;entryX=0.752;entryY=0.423;entryDx=0;entryDy=0;entryPerimeter=0;endArrow=open;endFill=0;" parent="1" source="S4FTbXt1knZrRc-NNq1e-44" target="S4FTbXt1knZrRc-NNq1e-54" edge="1">
          <mxGeometry relative="1" as="geometry">
            <Array as="points">
              <mxPoint x="247" y="-148" />
              <mxPoint x="104" y="-148" />
            </Array>
          </mxGeometry>
        </mxCell>
        <mxCell id="S4FTbXt1knZrRc-NNq1e-58" style="edgeStyle=orthogonalEdgeStyle;rounded=0;orthogonalLoop=1;jettySize=auto;html=1;endArrow=open;endFill=0;" parent="1" source="S4FTbXt1knZrRc-NNq1e-54" target="S4FTbXt1knZrRc-NNq1e-57" edge="1">
          <mxGeometry relative="1" as="geometry">
            <Array as="points">
              <mxPoint x="88" y="-98" />
              <mxPoint x="88" y="-98" />
            </Array>
          </mxGeometry>
        </mxCell>
        <mxCell id="S4FTbXt1knZrRc-NNq1e-59" style="edgeStyle=orthogonalEdgeStyle;rounded=0;orthogonalLoop=1;jettySize=auto;html=1;endArrow=open;endFill=0;" parent="1" source="S4FTbXt1knZrRc-NNq1e-57" edge="1">
          <mxGeometry relative="1" as="geometry">
            <mxPoint x="88" y="14.5999755859375" as="targetPoint" />
          </mxGeometry>
        </mxCell>
        <mxCell id="S4FTbXt1knZrRc-NNq1e-57" value="Получить&lt;br&gt;&amp;nbsp;абонемент" style="rounded=0;whiteSpace=wrap;html=1;" parent="1" vertex="1">
          <mxGeometry x="28" y="-83" width="120" height="60" as="geometry" />
        </mxCell>
        <mxCell id="S4FTbXt1knZrRc-NNq1e-65" value="" style="ellipse;html=1;shape=endState;fillColor=#000000;strokeColor=#000000;" parent="1" vertex="1">
          <mxGeometry x="-124" y="-248" width="18" height="18" as="geometry" />
        </mxCell>
        <mxCell id="S4FTbXt1knZrRc-NNq1e-66" value="" style="ellipse;html=1;shape=endState;fillColor=#000000;strokeColor=#000000;" parent="1" vertex="1">
          <mxGeometry x="79" y="15" width="18" height="18" as="geometry" />
        </mxCell>
      </root>
    </mxGraphModel>
  </diagram>
</mxfile>
